<svg width="163" height="28" viewBox="0 0 163 28" fill="none" xmlns="http://www.w3.org/2000/svg">
<path d="M12.9084 25.3401C19.8882 25.3401 25.5464 19.6675 25.5464 12.67C25.5464 5.67257 19.8882 0 12.9084 0C5.92862 0 0.270382 5.67257 0.270382 12.67C0.270382 19.6675 5.92862 25.3401 12.9084 25.3401Z" fill="url(#paint0_linear_7630_447)"/>
<path d="M24.0581 6.69982C25.1358 8.91498 20.9238 13.1974 14.6504 16.2649C8.37706 19.3324 2.41784 20.0233 1.34017 17.8082C1.32228 17.7714 1.30585 17.7341 1.29087 17.6962C0.137922 19.2388 -0.296058 20.6383 0.206954 21.6723C0.749379 22.7872 2.2968 23.3031 4.4615 23.2642C4.70368 23.9844 4.88811 25.1489 4.37793 26.1169C3.7512 27.306 3.05361 27.8678 2.78316 28C3.60383 27.9665 5.56412 27.5229 6.83994 26.0164C7.98843 24.6602 8.22928 23.3902 8.2064 22.7769C10.6791 22.2318 13.5053 21.2382 16.3849 19.8301C24.0026 16.1053 29.1102 10.891 27.793 8.18354C27.29 7.1496 25.9228 6.6308 24.0005 6.59193C24.021 6.62709 24.0402 6.66305 24.0581 6.69982Z" fill="#3369F3"/>
<path d="M39.782 20V7.4H41.69L47.216 16.598H46.19L51.626 7.4H53.534L53.57 20H51.338L51.32 10.874H51.788L47.18 18.56H46.136L41.456 10.874H41.996V20H39.782ZM61.326 20.126C60.258 20.126 59.322 19.916 58.518 19.496C57.726 19.064 57.108 18.476 56.664 17.732C56.232 16.988 56.016 16.142 56.016 15.194C56.016 14.234 56.226 13.388 56.646 12.656C57.078 11.912 57.666 11.33 58.41 10.91C59.166 10.49 60.024 10.28 60.984 10.28C61.92 10.28 62.754 10.484 63.486 10.892C64.218 11.3 64.794 11.876 65.214 12.62C65.634 13.364 65.844 14.24 65.844 15.248C65.844 15.344 65.838 15.452 65.826 15.572C65.826 15.692 65.82 15.806 65.808 15.914H57.798V14.42H64.62L63.738 14.888C63.75 14.336 63.636 13.85 63.396 13.43C63.156 13.01 62.826 12.68 62.406 12.44C61.998 12.2 61.524 12.08 60.984 12.08C60.432 12.08 59.946 12.2 59.526 12.44C59.118 12.68 58.794 13.016 58.554 13.448C58.326 13.868 58.212 14.366 58.212 14.942V15.302C58.212 15.878 58.344 16.388 58.608 16.832C58.872 17.276 59.244 17.618 59.724 17.858C60.204 18.098 60.756 18.218 61.38 18.218C61.92 18.218 62.406 18.134 62.838 17.966C63.27 17.798 63.654 17.534 63.99 17.174L65.196 18.56C64.764 19.064 64.218 19.454 63.558 19.73C62.91 19.994 62.166 20.126 61.326 20.126ZM72.679 20.126C71.671 20.126 70.771 19.916 69.979 19.496C69.199 19.064 68.587 18.476 68.143 17.732C67.699 16.988 67.477 16.142 67.477 15.194C67.477 14.234 67.699 13.388 68.143 12.656C68.587 11.912 69.199 11.33 69.979 10.91C70.771 10.49 71.671 10.28 72.679 10.28C73.615 10.28 74.437 10.472 75.145 10.856C75.865 11.228 76.411 11.78 76.783 12.512L75.055 13.52C74.767 13.064 74.413 12.728 73.993 12.512C73.585 12.296 73.141 12.188 72.661 12.188C72.109 12.188 71.611 12.308 71.167 12.548C70.723 12.788 70.375 13.136 70.123 13.592C69.871 14.036 69.745 14.57 69.745 15.194C69.745 15.818 69.871 16.358 70.123 16.814C70.375 17.258 70.723 17.6 71.167 17.84C71.611 18.08 72.109 18.2 72.661 18.2C73.141 18.2 73.585 18.092 73.993 17.876C74.413 17.66 74.767 17.324 75.055 16.868L76.783 17.876C76.411 18.596 75.865 19.154 75.145 19.55C74.437 19.934 73.615 20.126 72.679 20.126ZM82.9973 20.126C81.9893 20.126 81.0893 19.916 80.2973 19.496C79.5173 19.064 78.9053 18.476 78.4613 17.732C78.0173 16.988 77.7953 16.142 77.7953 15.194C77.7953 14.234 78.0173 13.388 78.4613 12.656C78.9053 11.912 79.5173 11.33 80.2973 10.91C81.0893 10.49 81.9893 10.28 82.9973 10.28C83.9333 10.28 84.7553 10.472 85.4633 10.856C86.1833 11.228 86.7293 11.78 87.1013 12.512L85.3733 13.52C85.0853 13.064 84.7313 12.728 84.3113 12.512C83.9033 12.296 83.4593 12.188 82.9793 12.188C82.4273 12.188 81.9293 12.308 81.4853 12.548C81.0413 12.788 80.6933 13.136 80.4413 13.592C80.1893 14.036 80.0633 14.57 80.0633 15.194C80.0633 15.818 80.1893 16.358 80.4413 16.814C80.6933 17.258 81.0413 17.6 81.4853 17.84C81.9293 18.08 82.4273 18.2 82.9793 18.2C83.4593 18.2 83.9033 18.092 84.3113 17.876C84.7313 17.66 85.0853 17.324 85.3733 16.868L87.1013 17.876C86.7293 18.596 86.1833 19.154 85.4633 19.55C84.7553 19.934 83.9333 20.126 82.9973 20.126ZM93.4237 20.126C92.3557 20.126 91.4197 19.916 90.6157 19.496C89.8237 19.064 89.2057 18.476 88.7617 17.732C88.3297 16.988 88.1137 16.142 88.1137 15.194C88.1137 14.234 88.3237 13.388 88.7437 12.656C89.1757 11.912 89.7637 11.33 90.5077 10.91C91.2637 10.49 92.1217 10.28 93.0817 10.28C94.0177 10.28 94.8517 10.484 95.5837 10.892C96.3157 11.3 96.8917 11.876 97.3117 12.62C97.7317 13.364 97.9417 14.24 97.9417 15.248C97.9417 15.344 97.9357 15.452 97.9237 15.572C97.9237 15.692 97.9177 15.806 97.9057 15.914H89.8957V14.42H96.7177L95.8357 14.888C95.8477 14.336 95.7337 13.85 95.4937 13.43C95.2537 13.01 94.9237 12.68 94.5037 12.44C94.0957 12.2 93.6217 12.08 93.0817 12.08C92.5297 12.08 92.0437 12.2 91.6237 12.44C91.2157 12.68 90.8917 13.016 90.6517 13.448C90.4237 13.868 90.3097 14.366 90.3097 14.942V15.302C90.3097 15.878 90.4417 16.388 90.7057 16.832C90.9697 17.276 91.3417 17.618 91.8217 17.858C92.3017 18.098 92.8537 18.218 93.4777 18.218C94.0177 18.218 94.5037 18.134 94.9357 17.966C95.3677 17.798 95.7517 17.534 96.0877 17.174L97.2937 18.56C96.8617 19.064 96.3157 19.454 95.6557 19.73C95.0077 19.994 94.2637 20.126 93.4237 20.126ZM100.403 20V10.388H102.653V14.294H107.495V10.388H109.745V20H107.495V16.202H102.653V20H100.403ZM119.348 18.956V12.296H115.658L115.604 13.844C115.58 14.396 115.544 14.93 115.496 15.446C115.448 15.95 115.37 16.418 115.262 16.85C115.154 17.27 114.998 17.618 114.794 17.894C114.59 18.17 114.32 18.35 113.984 18.434L111.752 18.092C112.112 18.092 112.4 17.978 112.616 17.75C112.844 17.51 113.018 17.186 113.138 16.778C113.27 16.358 113.366 15.884 113.426 15.356C113.486 14.816 113.528 14.258 113.552 13.682L113.678 10.388H121.598V18.956H119.348ZM111.41 22.142V18.092H123.02V22.142H120.914V20H113.498V22.142H111.41ZM136.496 20L133.688 15.392L135.524 14.258L139.178 20H136.496ZM131.87 16.148V14.276H135.092V16.148H131.87ZM135.74 15.464L133.616 15.212L136.532 10.388H138.926L135.74 15.464ZM126.344 20H123.68L127.316 14.258L129.152 15.392L126.344 20ZM132.536 20H130.304V10.388H132.536V20ZM130.97 16.148H127.766V14.276H130.97V16.148ZM127.1 15.464L123.914 10.388H126.308L129.206 15.212L127.1 15.464ZM145.015 20.126C143.947 20.126 143.011 19.916 142.207 19.496C141.415 19.064 140.797 18.476 140.353 17.732C139.921 16.988 139.705 16.142 139.705 15.194C139.705 14.234 139.915 13.388 140.335 12.656C140.767 11.912 141.355 11.33 142.099 10.91C142.855 10.49 143.713 10.28 144.673 10.28C145.609 10.28 146.443 10.484 147.175 10.892C147.907 11.3 148.483 11.876 148.903 12.62C149.323 13.364 149.533 14.24 149.533 15.248C149.533 15.344 149.527 15.452 149.515 15.572C149.515 15.692 149.509 15.806 149.497 15.914H141.487V14.42H148.309L147.427 14.888C147.439 14.336 147.325 13.85 147.085 13.43C146.845 13.01 146.515 12.68 146.095 12.44C145.687 12.2 145.213 12.08 144.673 12.08C144.121 12.08 143.635 12.2 143.215 12.44C142.807 12.68 142.483 13.016 142.243 13.448C142.015 13.868 141.901 14.366 141.901 14.942V15.302C141.901 15.878 142.033 16.388 142.297 16.832C142.561 17.276 142.933 17.618 143.413 17.858C143.893 18.098 144.445 18.218 145.069 18.218C145.609 18.218 146.095 18.134 146.527 17.966C146.959 17.798 147.343 17.534 147.679 17.174L148.885 18.56C148.453 19.064 147.907 19.454 147.247 19.73C146.599 19.994 145.855 20.126 145.015 20.126ZM157.322 20.126C156.542 20.126 155.828 19.946 155.18 19.586C154.544 19.226 154.034 18.686 153.65 17.966C153.278 17.234 153.092 16.31 153.092 15.194C153.092 14.066 153.272 13.142 153.632 12.422C154.004 11.702 154.508 11.168 155.144 10.82C155.78 10.46 156.506 10.28 157.322 10.28C158.27 10.28 159.104 10.484 159.824 10.892C160.556 11.3 161.132 11.87 161.552 12.602C161.984 13.334 162.2 14.198 162.2 15.194C162.2 16.19 161.984 17.06 161.552 17.804C161.132 18.536 160.556 19.106 159.824 19.514C159.104 19.922 158.27 20.126 157.322 20.126ZM151.994 23.492V10.388H154.136V12.656L154.064 15.212L154.244 17.768V23.492H151.994ZM157.07 18.2C157.61 18.2 158.09 18.08 158.51 17.84C158.942 17.6 159.284 17.252 159.536 16.796C159.788 16.34 159.914 15.806 159.914 15.194C159.914 14.57 159.788 14.036 159.536 13.592C159.284 13.136 158.942 12.788 158.51 12.548C158.09 12.308 157.61 12.188 157.07 12.188C156.53 12.188 156.044 12.308 155.612 12.548C155.18 12.788 154.838 13.136 154.586 13.592C154.334 14.036 154.208 14.57 154.208 15.194C154.208 15.806 154.334 16.34 154.586 16.796C154.838 17.252 155.18 17.6 155.612 17.84C156.044 18.08 156.53 18.2 157.07 18.2Z" fill="#121A23"/>
<defs>
<linearGradient id="paint0_linear_7630_447" x1="7" y1="2.5" x2="21.5" y2="25" gradientUnits="userSpaceOnUse">
<stop stop-color="#2F4155"/>
<stop offset="1" stop-color="#121A23"/>
</linearGradient>
</defs>
</svg>
