<svg width="28" height="28" viewBox="0 0 28 28" fill="none" xmlns="http://www.w3.org/2000/svg">
<path d="M12.9084 25.3401C19.8882 25.3401 25.5464 19.6675 25.5464 12.67C25.5464 5.67257 19.8882 0 12.9084 0C5.92862 0 0.270382 5.67257 0.270382 12.67C0.270382 19.6675 5.92862 25.3401 12.9084 25.3401Z" fill="url(#paint0_linear_8393_1165)"/>
<path d="M24.0581 6.69982C25.1358 8.91498 20.9238 13.1974 14.6504 16.2649C8.37706 19.3324 2.41784 20.0233 1.34017 17.8082C1.32228 17.7714 1.30585 17.7341 1.29087 17.6962C0.137922 19.2388 -0.296058 20.6383 0.206954 21.6723C0.749379 22.7872 2.2968 23.3031 4.4615 23.2642C4.70368 23.9844 4.88811 25.1489 4.37793 26.1169C3.7512 27.306 3.05361 27.8678 2.78316 28C3.60383 27.9665 5.56412 27.5229 6.83994 26.0164C7.98843 24.6602 8.22928 23.3902 8.2064 22.7769C10.6791 22.2318 13.5053 21.2382 16.3849 19.8301C24.0026 16.1053 29.1102 10.891 27.793 8.18354C27.29 7.1496 25.9228 6.6308 24.0005 6.59193C24.021 6.62709 24.0402 6.66305 24.0581 6.69982Z" fill="#3369F3"/>
<defs>
<linearGradient id="paint0_linear_8393_1165" x1="7" y1="2.5" x2="21.5" y2="25" gradientUnits="userSpaceOnUse">
<stop stop-color="#2F4155"/>
<stop offset="1" stop-color="#121A23"/>
</linearGradient>
</defs>
</svg>
