<svg width="77" height="100" viewBox="0 0 77 100" fill="none" xmlns="http://www.w3.org/2000/svg">
<g clip-path="url(#clip0_1270_953)">
<path d="M0.00277056 49.9739C0.00277056 38.1415 0.00277056 26.3091 0.00277056 14.4768C0.00554375 7.9112 4.09323 2.39126 10.2858 0.591642C11.5733 0.214028 12.9089 0.022195 14.2514 0.0220373C26.4202 0.0220373 38.589 0.0220373 50.7577 0.0220373C50.9798 0.0142083 51.2012 0.0505935 51.4089 0.129046C51.6165 0.207499 51.8063 0.32643 51.9668 0.478822C59.9 7.44983 67.8443 14.4107 75.7997 21.3616C75.9437 21.4728 76.0583 21.617 76.1337 21.7819C76.209 21.9468 76.2429 22.1274 76.2323 22.3082C76.2323 43.6027 76.2267 64.8982 76.2156 86.1947C76.2156 93.7041 69.7569 100.017 62.1916 100.019C46.2624 100.019 30.3332 100.019 14.404 100.019C6.72776 100.019 0.610099 94.37 0.0610073 86.7698C0.0221826 86.2194 0.00831753 85.6526 0.00554434 85.094C0.00184675 73.3809 0.000921763 61.6742 0.00277056 49.9739Z" fill="black"/>
<path d="M4.14038 49.9849C4.14038 38.125 4.14038 26.2651 4.14038 14.4053C4.14038 9.27056 7.46821 5.24756 12.5154 4.25969C13.1761 4.14227 13.8466 4.0879 14.5177 4.09734C25.824 4.09734 37.133 4.09734 48.4421 4.06982C49.202 4.06982 49.3462 4.28996 49.3406 4.99165C49.3101 9.33385 49.3961 13.6816 49.299 18.0238C49.238 20.7232 51.0018 22.6301 53.4921 23.2025C54.2257 23.3659 54.9755 23.4462 55.7273 23.4419C60.9104 23.4419 66.0963 23.4419 71.2794 23.4254C71.9616 23.4254 72.1113 23.6207 72.1113 24.2756C72.091 44.7979 72.0845 65.3202 72.0919 85.8425C72.0953 87.1768 71.8316 88.4986 71.3162 89.731C70.8008 90.9635 70.0438 92.0821 69.0893 93.0221C68.1348 93.962 67.0017 94.7045 65.7558 95.2066C64.5098 95.7087 63.1758 95.9602 61.8311 95.9468H14.5398C8.61908 95.9468 4.14592 91.544 4.14315 85.6471C4.13575 73.7597 4.13483 61.8723 4.14038 49.9849Z" fill="#F6F6F6"/>
<path d="M38.1869 44.2859C29.6732 44.2859 21.1604 44.2915 12.6485 44.3025C11.983 44.3025 11.7611 44.1484 11.8166 43.4769C11.8804 42.5469 11.8471 41.6113 11.8166 40.6785C11.8166 40.3042 11.9303 40.1281 12.3241 40.1804C12.458 40.1886 12.5923 40.1886 12.7262 40.1804C29.6445 40.1804 46.561 40.174 63.4756 40.1611C64.2493 40.1611 64.5128 40.3317 64.4379 41.116C64.3754 41.9403 64.3754 42.7682 64.4379 43.5925C64.4712 44.1594 64.2881 44.3052 63.7224 44.3025C58.298 44.2804 52.8737 44.2887 47.4493 44.2887L38.1869 44.2859Z" fill="black"/>
<path d="M38.0953 55.1883C29.6112 55.1883 21.1271 55.1938 12.643 55.2048C11.9802 55.2048 11.7528 55.0672 11.811 54.3793C11.875 53.555 11.875 52.727 11.811 51.9027C11.7556 51.2065 12.0246 51.0772 12.6679 51.0772C16.1844 51.1102 19.7008 51.0937 23.2061 51.0937C36.6283 51.0937 50.0524 51.0873 63.4784 51.0745C64.2604 51.0745 64.51 51.2616 64.4323 52.0348C64.3672 52.7782 64.3672 53.5258 64.4323 54.2692C64.4906 54.9709 64.302 55.1938 63.5394 55.191C55.0617 55.1773 46.5785 55.1883 38.0953 55.1883Z" fill="black"/>
<path d="M38.1813 62.0676C46.6673 62.0676 55.1514 62.0676 63.6337 62.0676C64.2271 62.0676 64.4934 62.1612 64.4434 62.8298C64.3949 63.7611 64.3949 64.6943 64.4434 65.6256C64.4434 66.0549 64.302 66.209 63.8888 66.1622C63.7549 66.1553 63.6206 66.1553 63.4867 66.1622C46.5721 66.1622 29.6556 66.1677 12.7373 66.1787C12.0246 66.1787 11.7389 66.0356 11.8055 65.2761C11.8665 64.4251 11.8665 63.5708 11.8055 62.7198C11.775 62.1694 11.9774 62.0704 12.4849 62.0731C16.7279 62.0924 20.9709 62.0731 25.2111 62.0731L38.1813 62.0676Z" fill="black"/>
</g>
<defs>
<clipPath id="clip0_1270_953">
<rect width="76.2295" height="100" fill="white"/>
</clipPath>
</defs>
</svg>
