<svg width="100" height="100" viewBox="0 0 100 100" fill="none" xmlns="http://www.w3.org/2000/svg">
<g clip-path="url(#clip0_1265_934)">
<path fill-rule="evenodd" clip-rule="evenodd" d="M22.2142 91.5686C30.4382 97.0658 40.1079 100 50 100C63.2487 100 75.9558 94.7418 85.3306 85.3801C94.7054 76.0184 99.9814 63.3187 100 50.07C100.014 40.178 97.0931 30.5041 91.6075 22.2725C86.1219 14.0408 78.3178 7.62129 69.1827 3.82617C60.0476 0.0310495 49.9921 -0.96911 40.2884 0.952239C30.5848 2.87359 21.6691 7.6301 14.6695 14.6199C7.66983 21.6098 2.90083 30.5188 0.965892 40.2197C-0.969049 49.9207 0.0170216 59.9776 3.79934 69.118C7.58165 78.2584 13.9902 86.0714 22.2142 91.5686ZM30.9496 50.8776C30.4206 50.6278 29.8449 50.4923 29.26 50.4801C28.7089 50.4613 28.1598 50.5534 27.6449 50.7508C27.1301 50.9482 26.6602 51.2469 26.2629 51.6292C25.8657 52.0115 25.5492 52.4697 25.3323 52.9766C25.1153 53.4835 25.0023 54.0287 25 54.5801C25.0004 55.2082 25.1343 55.829 25.3929 56.4014C25.6515 56.9738 26.0289 57.4846 26.5 57.9001C30.9466 62.3467 35.3966 66.7801 39.85 71.2001C42.47 73.8601 44.54 73.8501 47.19 71.2001L77.28 41.0901C77.6349 40.7791 77.969 40.445 78.28 40.0901C78.6982 39.5596 78.98 38.9347 79.1006 38.27C79.2211 37.6053 79.1768 36.9212 78.9715 36.2777C78.7662 35.6341 78.4062 35.0508 77.923 34.5787C77.4398 34.1066 76.8481 33.7603 76.2 33.5701C75.3835 33.3333 74.5154 33.3427 73.7042 33.5971C72.8931 33.8515 72.175 34.3395 71.64 35.0001C62.5466 44.0534 53.47 53.1434 44.41 62.2701C43.73 62.9201 43.36 63.0301 42.62 62.2701C40.4091 60.0005 38.1642 57.7607 35.9186 55.5202C34.7209 54.3253 33.523 53.1301 32.33 51.9301C31.949 51.4861 31.4786 51.1275 30.9496 50.8776Z" fill="#00AE41"/>
</g>
<defs>
<clipPath id="clip0_1265_934">
<rect width="100" height="100" fill="white"/>
</clipPath>
</defs>
</svg>
