<svg width="20" height="20" viewBox="0 0 20 20" fill="none" xmlns="http://www.w3.org/2000/svg">
<path d="M9.31818 15V10.6818H5V9.31818H9.31818V5H10.6818V9.31818H15V10.6818H10.6818V15H9.31818Z" fill="black"/>
<path fill-rule="evenodd" clip-rule="evenodd" d="M20 10C20 15.5228 15.5228 20 10 20C4.47715 20 0 15.5228 0 10C0 4.47715 4.47715 0 10 0C15.5228 0 20 4.47715 20 10ZM18.6364 10C18.6364 14.7697 14.7697 18.6364 10 18.6364C5.23027 18.6364 1.36364 14.7697 1.36364 10C1.36364 5.23027 5.23027 1.36364 10 1.36364C14.7697 1.36364 18.6364 5.23027 18.6364 10Z" fill="black"/>
</svg>
