<svg width="20" height="20" viewBox="0 0 20 20" fill="none" xmlns="http://www.w3.org/2000/svg">
<path fill-rule="evenodd" clip-rule="evenodd" d="M2.5 10C2.5 5.85786 5.85786 2.5 10 2.5C14.1421 2.5 17.5 5.85786 17.5 10C17.5 11.0667 17.2773 12.0813 16.8759 13H18.4879C18.8195 12.0617 19 11.0519 19 10C19 5.02944 14.9706 1 10 1C5.02944 1 1 5.02944 1 10C1 14.9706 5.02944 19 10 19C11.1482 19 12.2461 18.785 13.2558 18.3931C13.2519 18.3459 13.25 18.2982 13.25 18.25V16.7612C12.2667 17.2347 11.1644 17.5 10 17.5C8.20167 17.5 6.55117 16.8671 5.2591 15.8118C5.32281 15.1259 5.72202 14.1559 6.4899 13.3198C7.3104 12.4264 8.49436 11.75 10 11.75C11.32 11.75 12.3927 12.2698 13.19 13H13.25V11.25C13.25 11.2237 13.2506 11.1976 13.2517 11.1716C13.0194 11.0273 12.7741 10.8959 12.5163 10.7805C13.274 10.0943 13.75 9.10274 13.75 8C13.75 5.92893 12.0711 4.25 10 4.25C7.92893 4.25 6.25 5.92893 6.25 8C6.25 9.10274 6.72599 10.0943 7.48371 10.7805C6.6484 11.1544 5.94472 11.6958 5.3851 12.3052C4.76318 12.9824 4.29781 13.7674 4.02569 14.5347C3.06829 13.2753 2.5 11.704 2.5 10ZM12.25 8C12.25 9.24264 11.2426 10.25 10 10.25C8.75736 10.25 7.75 9.24264 7.75 8C7.75 6.75736 8.75736 5.75 10 5.75C11.2426 5.75 12.25 6.75736 12.25 8Z" fill="black"/>
<path fill-rule="evenodd" clip-rule="evenodd" d="M15.75 11.25C15.75 10.8358 15.4142 10.5 15 10.5C14.5858 10.5 14.25 10.8358 14.25 11.25V14H11.5C11.0858 14 10.75 14.3358 10.75 14.75C10.75 15.1642 11.0858 15.5 11.5 15.5H14.25V18.25C14.25 18.6642 14.5858 19 15 19C15.4142 19 15.75 18.6642 15.75 18.25V15.5H18.5C18.9142 15.5 19.25 15.1642 19.25 14.75C19.25 14.3358 18.9142 14 18.5 14H15.75V11.25Z" fill="black"/>
</svg>
