<svg width="20" height="20" viewBox="0 0 20 20" fill="none" xmlns="http://www.w3.org/2000/svg">
<path d="M14.815 19.315C14.815 19.6933 15.1217 20 15.5 20C15.8783 20 16.185 19.6933 16.185 19.315V16.1849H19.315C19.6933 16.1849 20 15.8783 20 15.4999C20 15.1216 19.6933 14.8149 19.315 14.8149H16.185V11.685C16.185 11.3067 15.8783 11 15.5 11C15.1217 11 14.815 11.3067 14.815 11.685V14.8149H11.685C11.3067 14.8149 11 15.1216 11 15.4999C11 15.8783 11.3067 16.1849 11.685 16.1849H14.815V19.315Z" fill="#121A23"/>
<path fill-rule="evenodd" clip-rule="evenodd" d="M13.4464 19.3903C12.372 19.7847 11.2111 20 10 20C4.47715 20 0 15.5228 0 10C0 4.47715 4.47715 0 10 0C15.5228 0 20 4.47715 20 10C20 11.2111 19.7847 12.3719 19.3903 13.4462C19.3653 13.4453 19.3402 13.4448 19.315 13.4448H17.926C18.3853 12.3895 18.64 11.2245 18.64 10.0001C18.64 5.22837 14.7717 1.36011 9.99999 1.36011C5.22825 1.36011 1.35999 5.22837 1.35999 10.0001C1.35999 12.0704 2.08814 13.9706 3.30232 15.4586C3.96444 13.2835 5.65712 11.5573 7.81166 10.8489C6.72069 10.1345 6 8.90141 6 7.5C6 5.29086 7.79086 3.5 10 3.5C12.2091 3.5 14 5.29086 14 7.5C14 8.90141 13.2793 10.1345 12.1883 10.8489C12.6346 10.9956 13.061 11.186 13.4626 11.415C13.451 11.5033 13.445 11.5934 13.445 11.6849V13.0342C12.4921 12.2981 11.2972 11.8601 9.99998 11.8601C7.18947 11.8601 4.8591 13.9159 4.43051 16.6057C5.93446 17.875 7.87788 18.6401 9.99999 18.6401C11.2245 18.6401 12.3896 18.3854 13.445 17.926V19.3149C13.445 19.3401 13.4455 19.3652 13.4464 19.3903ZM12.64 7.50011C12.64 8.95814 11.458 10.1401 9.99999 10.1401C8.54195 10.1401 7.35999 8.95814 7.35999 7.50011C7.35999 6.04208 8.54195 4.86011 9.99999 4.86011C11.458 4.86011 12.64 6.04208 12.64 7.50011Z" fill="#121A23"/>
</svg>
