<svg width="20" height="20" viewBox="0 0 20 20" fill="none" xmlns="http://www.w3.org/2000/svg">
<path fill-rule="evenodd" clip-rule="evenodd" d="M10.1605 3.32592L3.70376 9.38672L3.70201 9.38842C3.69886 9.39149 3.69264 9.39762 3.68368 9.40673C3.66576 9.42496 3.63699 9.45499 3.60005 9.49617C3.526 9.57871 3.42019 9.70482 3.30346 9.86919C3.06842 10.2001 2.79873 10.6725 2.64587 11.2465C2.35408 12.342 2.44852 13.9397 4.41972 15.79C6.39091 17.6403 8.09293 17.729 9.26009 17.4551C9.87152 17.3116 10.3748 17.0584 10.7273 16.8378C10.9024 16.7282 11.0368 16.6289 11.1247 16.5594C11.1686 16.5247 11.2006 16.4977 11.22 16.4809C11.2297 16.4725 11.2362 16.4666 11.2395 16.4637L11.2413 16.4621L17.7002 10.3993C17.9975 10.1202 18.4796 10.1202 18.777 10.3993C19.0743 10.6784 19.0743 11.1309 18.777 11.41L12.3162 17.4746L11.7778 16.9692C12.3162 17.4746 12.3162 17.4746 12.3162 17.4746L12.3148 17.4759L12.313 17.4776L12.3084 17.4818L12.2953 17.4938C12.2847 17.5034 12.2705 17.516 12.2529 17.5312C12.2176 17.5618 12.1683 17.6032 12.1056 17.6528C11.9805 17.7517 11.8007 17.884 11.572 18.0272C11.117 18.3119 10.4537 18.6484 9.62943 18.8418C7.92514 19.2418 5.67891 18.9935 3.34292 16.8008C1.00693 14.608 0.742447 12.4995 1.16852 10.8998C1.37459 10.126 1.73303 9.50342 2.03639 9.07628C2.18885 8.86162 2.32982 8.69292 2.43523 8.57542C2.48802 8.51657 2.53216 8.47027 2.56471 8.43717C2.58099 8.42061 2.5944 8.40733 2.60458 8.39741L2.61737 8.38504L2.62187 8.38075L2.62363 8.37909L2.62439 8.37838C2.62439 8.37838 2.62506 8.37774 3.16346 8.88312L2.62439 8.37838L9.08583 2.31317L9.62423 2.81855C9.08583 2.31317 9.08583 2.31317 9.08583 2.31317L9.08715 2.31194L9.08875 2.31045L9.09275 2.30674L9.10402 2.29645C9.11297 2.28835 9.1248 2.27779 9.13942 2.26506C9.16865 2.23961 9.20917 2.20534 9.26038 2.16442C9.36258 2.08276 9.50856 1.97364 9.69341 1.85492C10.0605 1.61917 10.596 1.33577 11.2585 1.16166C12.6385 0.798955 14.45 0.946903 16.2645 2.65009C18.0789 4.35328 18.2365 6.05374 17.8501 7.34911C17.6647 7.97095 17.3627 8.47362 17.1116 8.81818C16.9851 8.9917 16.8689 9.12872 16.7819 9.22466C16.7383 9.27273 16.7018 9.31076 16.6747 9.3382C16.6611 9.35193 16.6498 9.36303 16.6412 9.37143L16.6303 9.38201L16.6263 9.38577L16.6247 9.38727C16.6247 9.38727 16.6234 9.3885 16.085 8.88312L16.6234 9.3885L10.8805 14.7792L10.3421 14.2739C10.8805 14.7792 10.8805 14.7792 10.8805 14.7792L10.8791 14.7805L10.8776 14.7819L10.874 14.7852L10.8648 14.7937C10.8576 14.8001 10.8487 14.8081 10.8379 14.8175C10.8163 14.8362 10.7873 14.8605 10.7512 14.889C10.6793 14.9458 10.5781 15.0202 10.4504 15.1002C10.1972 15.2586 9.8256 15.4476 9.36023 15.5568C8.37381 15.7883 7.11464 15.6243 5.85544 14.4423C4.59625 13.2603 4.4215 12.0784 4.6681 11.1525C4.78445 10.7156 4.98585 10.3668 5.15461 10.1292C5.23977 10.0093 5.31905 9.91425 5.37959 9.84676C5.40995 9.81292 5.43587 9.78571 5.45579 9.76544C5.46577 9.7553 5.47427 9.74687 5.48111 9.74019L5.49012 9.73149L5.49365 9.72813L5.49517 9.72669C5.49517 9.72669 5.49651 9.72543 6.03491 10.2308L5.49651 9.72542L10.5216 5.00854C10.8189 4.72942 11.301 4.72942 11.5984 5.00854C11.8957 5.28765 11.8957 5.74019 11.5984 6.0193L6.57732 10.7324L6.57477 10.735C6.56946 10.7404 6.55892 10.7513 6.54441 10.7675C6.51522 10.8 6.47111 10.8525 6.42168 10.9221C6.32124 11.0635 6.20858 11.2621 6.14545 11.4991C6.03313 11.9209 6.03784 12.592 6.93224 13.4316C7.82664 14.2711 8.54159 14.2755 8.99089 14.1701C9.24339 14.1108 9.45502 14.0051 9.60567 13.9108C9.67983 13.8644 9.73566 13.823 9.77032 13.7956C9.78755 13.782 9.79921 13.7721 9.80496 13.7671L9.80771 13.7647L15.5445 8.37973V8.37973L15.5583 8.36603C15.5716 8.3525 15.5937 8.32967 15.6223 8.29811C15.6797 8.2348 15.7625 8.13756 15.8548 8.011C16.0411 7.75543 16.2551 7.39474 16.3837 6.9637C16.6254 6.15332 16.6036 4.98995 15.1877 3.66086C13.7717 2.33176 12.5324 2.31125 11.6691 2.53815C11.2098 2.65885 10.8256 2.85978 10.5533 3.03464C10.4185 3.12123 10.3149 3.19901 10.2475 3.2529C10.2138 3.27976 10.1895 3.30044 10.1751 3.31299L10.1605 3.32592V3.32592ZM15.5445 8.37973V8.37973Z" fill="black"/>
</svg>
