<svg width="20" height="20" viewBox="0 0 20 20" fill="none" xmlns="http://www.w3.org/2000/svg">
<path d="M18.7071 2.70711C19.0976 2.31658 19.0976 1.68342 18.7071 1.29289C18.3166 0.902369 17.6834 0.902369 17.2929 1.29289L10 8.58579L2.70711 1.29289C2.31658 0.902369 1.68342 0.902369 1.29289 1.29289C0.902369 1.68342 0.902369 2.31658 1.29289 2.70711L8.58579 10L1.29289 17.2929C0.902369 17.6834 0.902369 18.3166 1.29289 18.7071C1.68342 19.0976 2.31658 19.0976 2.70711 18.7071L10 11.4142L17.2929 18.7071C17.6834 19.0976 18.3166 19.0976 18.7071 18.7071C19.0976 18.3166 19.0976 17.6834 18.7071 17.2929L11.4142 10L18.7071 2.70711Z" fill="black"/>
</svg>
