<svg width="20" height="20" viewBox="0 0 20 20" fill="none" xmlns="http://www.w3.org/2000/svg">
<path d="M14.0175 6.94657L10.964 10.0001L14.0174 13.0535L13.0532 14.0177L9.99978 10.9643L6.94647 14.0176L5.98223 13.0534L9.03554 10.0001L5.98211 6.94666L6.94635 5.98242L9.99978 9.03585L13.0533 5.98233L14.0175 6.94657Z" fill="black"/>
<path fill-rule="evenodd" clip-rule="evenodd" d="M20 10C20 15.5228 15.5228 20 10 20C4.47715 20 0 15.5228 0 10C0 4.47715 4.47715 0 10 0C15.5228 0 20 4.47715 20 10ZM18.6364 10C18.6364 14.7697 14.7697 18.6364 10 18.6364C5.23027 18.6364 1.36364 14.7697 1.36364 10C1.36364 5.23027 5.23027 1.36364 10 1.36364C14.7697 1.36364 18.6364 5.23027 18.6364 10Z" fill="black"/>
</svg>
