<svg width="20" height="20" viewBox="0 0 20 20" fill="none" xmlns="http://www.w3.org/2000/svg">
<path d="M6.99482 13.0052C6.70192 12.7123 6.70192 12.2375 6.99482 11.9446L8.93934 10L6.99482 8.05552C6.70192 7.76262 6.70192 7.28775 6.99482 6.99486C7.28771 6.70196 7.76258 6.70196 8.05548 6.99486L10 8.93938L11.9446 6.99482C12.2375 6.70192 12.7123 6.70192 13.0052 6.99482C13.2981 7.28771 13.2981 7.76258 13.0052 8.05548L11.0607 10L13.0052 11.9446C13.2981 12.2375 13.2981 12.7124 13.0052 13.0053C12.7123 13.2982 12.2375 13.2982 11.9446 13.0053L10 11.0607L8.05548 13.0052C7.76258 13.2981 7.28771 13.2981 6.99482 13.0052Z" fill="black"/>
<path fill-rule="evenodd" clip-rule="evenodd" d="M10 1C5.02944 1 1 5.02944 1 10C1 14.9706 5.02944 19 10 19C14.9706 19 19 14.9706 19 10C19 5.02944 14.9706 1 10 1ZM2.5 10C2.5 5.85786 5.85786 2.5 10 2.5C14.1421 2.5 17.5 5.85786 17.5 10C17.5 14.1421 14.1421 17.5 10 17.5C5.85786 17.5 2.5 14.1421 2.5 10Z" fill="black"/>
</svg>
