<svg width="20" height="20" viewBox="0 0 20 20" fill="none" xmlns="http://www.w3.org/2000/svg">
<path d="M1.87001 9.38648C2.24086 9.01812 2.83284 8.9975 3.22841 9.33918L6.62391 12.2721C7.06461 12.6527 7.08812 13.3279 6.67497 13.7383L6.57077 13.8418C6.19992 14.2102 5.60795 14.2308 5.21237 13.8891L1.81687 10.9562C1.37617 10.5756 1.35266 9.90036 1.76582 9.48997L1.87001 9.38648Z" fill="#121A23"/>
<path d="M10.5425 13.7909C10.1018 13.4102 10.0783 12.735 10.4915 12.3246L16.7049 6.15288C17.0757 5.78452 17.6677 5.76391 18.0633 6.10559L18.1831 6.20911C18.6238 6.58977 18.6473 7.26498 18.2342 7.67537L12.0208 13.8471C11.6499 14.2155 11.058 14.2361 10.6624 13.8944L10.5425 13.7909Z" fill="#121A23"/>
<path d="M5.10221 13.7909C4.66151 13.4102 4.638 12.735 5.05116 12.3246L11.2645 6.15288C11.6354 5.78452 12.2274 5.76391 12.6229 6.10559L12.7428 6.20911C13.1835 6.58977 13.207 7.26498 12.7938 7.67537L6.58046 13.8471C6.20961 14.2155 5.61763 14.2361 5.22206 13.8944L5.10221 13.7909Z" fill="#121A23"/>
</svg>
