<svg width="20" height="20" viewBox="0 0 20 20" fill="none" xmlns="http://www.w3.org/2000/svg">
<path d="M9.99995 4.6C10.9941 4.6 11.8 3.79411 11.8 2.8C11.8 1.80589 10.9941 1 9.99995 1C9.00584 1 8.19995 1.80589 8.19995 2.8C8.19995 3.79411 9.00584 4.6 9.99995 4.6Z" fill="#121A23"/>
<path d="M11.8 10C11.8 10.9941 10.9941 11.8 9.99995 11.8C9.00584 11.8 8.19995 10.9941 8.19995 10C8.19995 9.00589 9.00584 8.2 9.99995 8.2C10.9941 8.2 11.8 9.00589 11.8 10Z" fill="#121A23"/>
<path d="M11.8 17.2C11.8 18.1941 10.9941 19 9.99995 19C9.00584 19 8.19995 18.1941 8.19995 17.2C8.19995 16.2059 9.00584 15.4 9.99995 15.4C10.9941 15.4 11.8 16.2059 11.8 17.2Z" fill="#121A23"/>
</svg>
