<svg width="20" height="20" viewBox="0 0 20 20" fill="none" xmlns="http://www.w3.org/2000/svg">
<path fill-rule="evenodd" clip-rule="evenodd" d="M4 20C1.79086 20 0 18.2091 0 16V4C0 1.79086 1.79086 0 4 0H16C18.2091 0 20 1.79086 20 4V16C20 16.3452 19.9563 16.6801 19.8741 16.9997C19.8247 17.1914 19.7616 17.3775 19.6857 17.557C19.0784 18.9927 17.6569 20.0001 16 20.0001L4 20ZM4 1.5H16C17.3807 1.5 18.5 2.61929 18.5 4V10.9092H14.9091C12.6999 10.9092 10.9091 12.7 10.9091 14.9092V18.5H4C2.61929 18.5 1.5 17.3807 1.5 16V4C1.5 2.61929 2.61929 1.5 4 1.5Z" fill="black"/>
</svg>
