<svg width="20" height="20" viewBox="0 0 20 20" fill="none" xmlns="http://www.w3.org/2000/svg">
<path fill-rule="evenodd" clip-rule="evenodd" d="M1 3.75C1 2.23122 2.23122 1 3.75 1H10C10.4142 1 10.75 1.33579 10.75 1.75C10.75 2.16421 10.4142 2.5 10 2.5H3.75C3.05964 2.5 2.5 3.05964 2.5 3.75V16.25C2.5 16.9404 3.05964 17.5 3.75 17.5H10C10.4142 17.5 10.75 17.8358 10.75 18.25C10.75 18.6642 10.4142 19 10 19H3.75C2.23122 19 1 17.7688 1 16.25V3.75ZM13.6267 4.79882C13.9363 4.52363 14.4104 4.55152 14.6856 4.8611L18.7515 9.43529C19.0378 9.75734 19.0378 10.2427 18.7515 10.5647L14.6856 15.1389C14.4104 15.4485 13.9363 15.4764 13.6267 15.2012C13.3171 14.926 13.2893 14.4519 13.5644 14.1424L16.5799 10.75H8C7.58579 10.75 7.25 10.4142 7.25 10C7.25 9.58579 7.58579 9.25 8 9.25H16.5799L13.5644 5.85765C13.2893 5.54806 13.3171 5.07401 13.6267 4.79882Z" fill="black"/>
</svg>
