<svg width="20" height="20" viewBox="0 0 20 20" fill="none" xmlns="http://www.w3.org/2000/svg">
<path d="M10.25 0H4C1.79086 0 0 1.79086 0 4V16C0 18.2091 1.79086 20 4 20H10.25C10.6642 20 11 19.6642 11 19.25C11 18.8358 10.6642 18.5 10.25 18.5H4C2.61929 18.5 1.5 17.3807 1.5 16V4C1.5 2.61929 2.61929 1.5 4 1.5H10.25C10.6642 1.5 11 1.16421 11 0.75C11 0.335786 10.6642 0 10.25 0Z" fill="#121A23"/>
<path d="M13.7697 4.52021C14.0626 4.22731 14.5374 4.22731 14.8303 4.52021L19.7588 9.44869C19.7662 9.45554 19.7735 9.46256 19.7807 9.46976C20.0736 9.76265 20.0736 10.2375 19.7807 10.5304L14.831 15.4802C14.5381 15.7731 14.0632 15.7731 13.7703 15.4802C13.4774 15.1873 13.4774 14.7124 13.7703 14.4195L17.4399 10.7499H7.75C7.33579 10.7499 7 10.4141 7 9.99989C7 9.58567 7.33579 9.24989 7.75 9.24989H17.4387L13.7697 5.58087C13.4768 5.28797 13.4768 4.8131 13.7697 4.52021Z" fill="#121A23"/>
</svg>
