<svg width="20" height="20" viewBox="0 0 20 20" fill="none" xmlns="http://www.w3.org/2000/svg">
<path d="M4 0H12C12.8299 0.155611 12.8299 1.34439 12 1.5H4C2.61929 1.5 1.5 2.61929 1.5 4V16C1.5 17.3807 2.61929 18.5 4 18.5H16C17.3807 18.5 18.5 17.3807 18.5 16V8C18.6556 7.17007 19.8444 7.17007 20 8V16C20 18.2091 18.2091 20 16 20H4C1.79086 20 0 18.2091 0 16V4C0 1.79086 1.79086 0 4 0Z" fill="#121A23"/>
<path fill-rule="evenodd" clip-rule="evenodd" d="M18.0663 0.564881C17.2887 0.305655 16.4313 0.508058 15.8516 1.0877L8.8091 8.13024L8.04393 11.9561L11.8698 11.1909L18.9123 4.14836C19.4919 3.56872 19.6943 2.71133 19.4351 1.93365C19.2197 1.2874 18.7126 0.780296 18.0663 0.564881ZM16.9123 2.14836C17.0902 1.97047 17.3533 1.90835 17.592 1.98791C17.7903 2.05402 17.946 2.20965 18.0121 2.40799C18.0917 2.64667 18.0295 2.90981 17.8516 3.0877L11.1302 9.8091L9.95607 10.0439L10.1909 8.86976L16.9123 2.14836Z" fill="#121A23"/>
</svg>
