<svg width="20" height="20" viewBox="0 0 20 20" fill="none" xmlns="http://www.w3.org/2000/svg">
<path fill-rule="evenodd" clip-rule="evenodd" d="M4.81763 4.42H3.5C2.11929 4.42 1 5.53929 1 6.92V15C1 16.3807 2.11928 17.5 3.5 17.5H16.5C17.8807 17.5 19 16.3807 19 15V6.92C19 5.53929 17.8807 4.42 16.5 4.42H15.1824C14.9208 3.31897 13.931 2.5 12.75 2.5H7.25C6.06895 2.5 5.07919 3.31897 4.81763 4.42ZM6.25 5V5.92H4.75H3.5C2.94772 5.92 2.5 6.36772 2.5 6.92V15C2.5 15.5523 2.94772 16 3.5 16H16.5C17.0523 16 17.5 15.5523 17.5 15V6.92C17.5 6.36772 17.0523 5.92 16.5 5.92H15.25H13.75V5C13.75 4.44772 13.3023 4 12.75 4H7.25C6.69772 4 6.25 4.44772 6.25 5ZM10 8.75C8.75736 8.75 7.75 9.75736 7.75 11C7.75 12.2426 8.75736 13.25 10 13.25C11.2426 13.25 12.25 12.2426 12.25 11C12.25 9.75736 11.2426 8.75 10 8.75ZM6.25 11C6.25 8.92893 7.92893 7.25 10 7.25C12.0711 7.25 13.75 8.92893 13.75 11C13.75 13.0711 12.0711 14.75 10 14.75C7.92893 14.75 6.25 13.0711 6.25 11ZM15 7C14.4477 7 14 7.44772 14 8C14 8.55228 14.4477 9 15 9C15.5523 9 16 8.55228 16 8C16 7.44772 15.5523 7 15 7Z" fill="black"/>
</svg>
