<svg width="20" height="20" viewBox="0 0 20 20" fill="none" xmlns="http://www.w3.org/2000/svg">
<path fill-rule="evenodd" clip-rule="evenodd" d="M10 2.5C5.85786 2.5 2.5 5.85786 2.5 10C2.5 11.704 3.06829 13.2753 4.02569 14.5347C4.29781 13.7674 4.76318 12.9824 5.3851 12.3052C5.94472 11.6958 6.6484 11.1544 7.48371 10.7805C6.72599 10.0943 6.25 9.10274 6.25 8C6.25 5.92893 7.92893 4.25 10 4.25C12.0711 4.25 13.75 5.92893 13.75 8C13.75 9.10274 13.274 10.0943 12.5163 10.7805C13.3516 11.1544 14.0553 11.6958 14.6149 12.3052C15.2368 12.9824 15.7022 13.7674 15.9743 14.5347C16.9317 13.2753 17.5 11.704 17.5 10C17.5 5.85786 14.1421 2.5 10 2.5ZM14.7409 15.8118C14.6772 15.1259 14.278 14.1559 13.5101 13.3198C12.6896 12.4264 11.5056 11.75 10 11.75C8.49436 11.75 7.3104 12.4264 6.4899 13.3198C5.72202 14.1559 5.32281 15.1259 5.2591 15.8118C6.55117 16.8671 8.20167 17.5 10 17.5C11.7983 17.5 13.4488 16.8671 14.7409 15.8118ZM10 10.25C11.2426 10.25 12.25 9.24264 12.25 8C12.25 6.75736 11.2426 5.75 10 5.75C8.75736 5.75 7.75 6.75736 7.75 8C7.75 9.24264 8.75736 10.25 10 10.25ZM1 10C1 5.02944 5.02944 1 10 1C14.9706 1 19 5.02944 19 10C19 14.9706 14.9706 19 10 19C5.02944 19 1 14.9706 1 10Z" fill="black"/>
</svg>
