<svg width="20" height="20" viewBox="0 0 20 20" fill="none" xmlns="http://www.w3.org/2000/svg">
<path fill-rule="evenodd" clip-rule="evenodd" d="M10 20C15.5229 20 20 15.5228 20 10C20 4.47715 15.5229 0 10 0C4.47714 0 0 4.47715 0 10C0 15.5228 4.47714 20 10 20ZM10 19C14.9706 19 19 14.9706 19 10C19 5.02944 14.9706 1 10 1C5.02945 1 1 5.02944 1 10C1 14.9706 5.02945 19 10 19Z" fill="#121A23"/>
<path d="M16.9824 17C16.726 13.3674 13.6979 10.5 10 10.5C6.45688 10.5 3.52856 13.1324 3.06418 16.5481L4.00497 17.2537C4.13416 14.0542 6.76877 11.5 10 11.5C13.2585 11.5 15.9103 14.0975 15.9978 17.3348L16.5 17H16.9824Z" fill="#121A23"/>
<path fill-rule="evenodd" clip-rule="evenodd" d="M10 11.5C12.2091 11.5 14 9.70914 14 7.5C14 5.29086 12.2091 3.5 10 3.5C7.79086 3.5 6 5.29086 6 7.5C6 9.70914 7.79086 11.5 10 11.5ZM10 10.5C11.6569 10.5 13 9.15685 13 7.5C13 5.84315 11.6569 4.5 10 4.5C8.34314 4.5 7 5.84315 7 7.5C7 9.15685 8.34314 10.5 10 10.5Z" fill="#121A23"/>
</svg>
