<svg width="20" height="20" viewBox="0 0 20 20" fill="none" xmlns="http://www.w3.org/2000/svg">
<path fill-rule="evenodd" clip-rule="evenodd" d="M10 20C15.5228 20 20 15.5228 20 10C20 4.47715 15.5228 0 10 0C4.47715 0 0 4.47715 0 10C0 15.5228 4.47715 20 10 20ZM16.6977 15.4586C17.9118 13.9706 18.64 12.0704 18.64 10.0001C18.64 5.22837 14.7717 1.36011 9.99999 1.36011C5.22825 1.36011 1.35999 5.22837 1.35999 10.0001C1.35999 12.0704 2.08814 13.9706 3.30232 15.4586C3.96444 13.2835 5.65712 11.5573 7.81166 10.8489C6.72069 10.1345 6 8.90141 6 7.5C6 5.29086 7.79086 3.5 10 3.5C12.2091 3.5 14 5.29086 14 7.5C14 8.90141 13.2793 10.1345 12.1883 10.8489C14.3429 11.5573 16.0355 13.2835 16.6977 15.4586ZM15.5695 16.6057C15.1409 13.9159 12.8105 11.8601 9.99998 11.8601C7.18947 11.8601 4.8591 13.9159 4.43051 16.6057C5.93446 17.875 7.87788 18.6401 9.99999 18.6401C12.1221 18.6401 14.0655 17.875 15.5695 16.6057ZM9.99999 10.1401C11.458 10.1401 12.64 8.95814 12.64 7.50011C12.64 6.04208 11.458 4.86011 9.99999 4.86011C8.54195 4.86011 7.35999 6.04208 7.35999 7.50011C7.35999 8.95814 8.54195 10.1401 9.99999 10.1401Z" fill="#121A23"/>
</svg>
