<svg width="20" height="20" viewBox="0 0 20 20" fill="none" xmlns="http://www.w3.org/2000/svg">
<path d="M15.2305 16.1851L16.1844 15.2314L20 19.0463L19.0461 20L15.2305 16.1851Z" fill="black"/>
<path fill-rule="evenodd" clip-rule="evenodd" d="M9.44317 18.8827C14.6585 18.8827 18.8863 14.6556 18.8863 9.44133C18.8863 4.22703 14.6585 0 9.44317 0C4.22785 0 0 4.22703 0 9.44133C0 14.6556 4.22785 18.8827 9.44317 18.8827ZM9.44317 17.5339C13.9134 17.5339 17.5373 13.9107 17.5373 9.44133C17.5373 4.97193 13.9134 1.34876 9.44317 1.34876C4.9729 1.34876 1.34902 4.97193 1.34902 9.44133C1.34902 13.9107 4.9729 17.5339 9.44317 17.5339Z" fill="black"/>
</svg>
