<svg width="20" height="20" viewBox="0 0 20 20" fill="none" xmlns="http://www.w3.org/2000/svg">
<path fill-rule="evenodd" clip-rule="evenodd" d="M10 6.25C7.92893 6.25 6.25 7.92893 6.25 10C6.25 12.0711 7.92893 13.75 10 13.75C12.0711 13.75 13.75 12.0711 13.75 10C13.75 7.92893 12.0711 6.25 10 6.25ZM7.75 10C7.75 8.75736 8.75736 7.75 10 7.75C11.2426 7.75 12.25 8.75736 12.25 10C12.25 11.2426 11.2426 12.25 10 12.25C8.75736 12.25 7.75 11.2426 7.75 10Z" fill="#121A23"/>
<path fill-rule="evenodd" clip-rule="evenodd" d="M9.16667 1C8.20017 1 7.41667 1.7835 7.41667 2.75V3.5011L6.99424 3.64191L6.6541 3.30178C5.97069 2.61836 4.86265 2.61836 4.17923 3.30178L3.30178 4.17923C2.61836 4.86265 2.61836 5.97069 3.30178 6.6541L3.64191 6.99424L3.5011 7.41667H2.75C1.7835 7.41667 1 8.20017 1 9.16667V10.8333C1 11.7998 1.7835 12.5833 2.75 12.5833H3.5011L3.64191 13.0058L3.30178 13.3459C2.61836 14.0293 2.61836 15.1374 3.30178 15.8208L4.17923 16.6982C4.86265 17.3816 5.97069 17.3816 6.6541 16.6982L6.99424 16.3581L7.41667 16.4989V17.25C7.41667 18.2165 8.20017 19 9.16667 19H10.8333C11.7998 19 12.5833 18.2165 12.5833 17.25V16.4989L13.0058 16.3581L13.3459 16.6982C14.0293 17.3816 15.1374 17.3816 15.8208 16.6982L16.6982 15.8208C17.3816 15.1374 17.3816 14.0293 16.6982 13.3459L16.3581 13.0058L16.4989 12.5833H17.25C18.2165 12.5833 19 11.7998 19 10.8333V9.16667C19 8.20017 18.2165 7.41667 17.25 7.41667H16.4989L16.3581 6.99424L16.6982 6.6541C17.3816 5.97069 17.3816 4.86265 16.6982 4.17923L15.8208 3.30178C15.1374 2.61836 14.0293 2.61836 13.3459 3.30178L13.0058 3.64191L12.5833 3.5011V2.75C12.5833 1.7835 11.7998 1 10.8333 1H9.16667ZM8.91667 2.75C8.91667 2.61193 9.0286 2.5 9.16667 2.5H10.8333C10.9714 2.5 11.0833 2.61193 11.0833 2.75V4.58224L13.4109 5.35809L14.4066 4.36244C14.5042 4.26481 14.6625 4.26481 14.7601 4.36244L15.6376 5.23989C15.7352 5.33752 15.7352 5.49581 15.6376 5.59344L14.6419 6.5891L15.4178 8.91667H17.25C17.3881 8.91667 17.5 9.0286 17.5 9.16667V10.8333C17.5 10.9714 17.3881 11.0833 17.25 11.0833H15.4178L14.6419 13.4109L15.6376 14.4066C15.7352 14.5042 15.7352 14.6625 15.6376 14.7601L14.7601 15.6376C14.6625 15.7352 14.5042 15.7352 14.4066 15.6376L13.4109 14.6419L11.0833 15.4178V17.25C11.0833 17.3881 10.9714 17.5 10.8333 17.5H9.16667C9.02859 17.5 8.91667 17.3881 8.91667 17.25V15.4178L6.5891 14.6419L5.59344 15.6376C5.49581 15.7352 5.33752 15.7352 5.23989 15.6376L4.36244 14.7601C4.26481 14.6625 4.26481 14.5042 4.36244 14.4066L5.35809 13.4109L4.58224 11.0833H2.75C2.61193 11.0833 2.5 10.9714 2.5 10.8333V9.16667C2.5 9.02859 2.61193 8.91667 2.75 8.91667H4.58224L5.35809 6.5891L4.36244 5.59344C4.26481 5.49581 4.26481 5.33752 4.36244 5.23989L5.23989 4.36244C5.33752 4.26481 5.49581 4.26481 5.59344 4.36244L6.5891 5.35809L8.91667 4.58224V2.75Z" fill="#121A23"/>
</svg>
