<svg width="20" height="20" viewBox="0 0 20 20" fill="none" xmlns="http://www.w3.org/2000/svg">
<path fill-rule="evenodd" clip-rule="evenodd" d="M14 10C14 12.2091 12.2091 14 10 14C7.79086 14 6 12.2091 6 10C6 7.79086 7.79086 6 10 6C12.2091 6 14 7.79086 14 10ZM12.64 10.0001C12.64 11.4581 11.458 12.6401 9.99999 12.6401C8.54195 12.6401 7.35999 11.4581 7.35999 10.0001C7.35999 8.54208 8.54195 7.36011 9.99999 7.36011C11.458 7.36011 12.64 8.54208 12.64 10.0001Z" fill="#121A23"/>
<path fill-rule="evenodd" clip-rule="evenodd" d="M7.5 1.5C7.5 0.671573 8.17157 0 9 0H11C11.8284 0 12.5 0.671573 12.5 1.5V2.92676C12.7509 3.01545 12.9957 3.1171 13.2335 3.23092L14.2426 2.22183C14.8284 1.63604 15.7782 1.63604 16.3639 2.22183L17.7782 3.63604C18.3639 4.22183 18.3639 5.17157 17.7782 5.75736L16.7691 6.76645C16.8829 7.0043 16.9846 7.24909 17.0732 7.5H18.5C19.3284 7.5 20 8.17157 20 9V11C20 11.8284 19.3284 12.5 18.5 12.5H17.0732C16.9846 12.7509 16.8829 12.9957 16.7691 13.2335L17.7782 14.2426C18.3639 14.8284 18.3639 15.7782 17.7782 16.364L16.3639 17.7782C15.7782 18.364 14.8284 18.364 14.2426 17.7782L13.2335 16.7691C12.9957 16.8829 12.7509 16.9846 12.5 17.0732V18.5C12.5 19.3284 11.8284 20 11 20H9C8.17157 20 7.5 19.3284 7.5 18.5V17.0732C7.24909 16.9846 7.0043 16.8829 6.76645 16.7691L5.75734 17.7782C5.17156 18.364 4.22181 18.364 3.63602 17.7782L2.22181 16.364C1.63602 15.7782 1.63602 14.8284 2.22181 14.2426L3.23092 13.2335C3.1171 12.9957 3.01545 12.7509 2.92676 12.5H1.5C0.671573 12.5 0 11.8284 0 11V9C0 8.17157 0.671573 7.5 1.5 7.5H2.92676C3.01545 7.24909 3.1171 7.00432 3.23092 6.76647L2.22181 5.75736C1.63602 5.17157 1.63602 4.22183 2.22181 3.63604L3.63602 2.22183C4.22181 1.63604 5.17156 1.63604 5.75734 2.22183L6.76645 3.23093C7.0043 3.11711 7.24909 3.01545 7.5 2.92676V1.5ZM15.0727 13.4604C15.5417 12.7742 15.8751 11.9879 16.0343 11.1401H17.8899C18.3041 11.1401 18.6399 10.8043 18.6399 10.3901V9.61011C18.6399 9.19589 18.3041 8.86011 17.8899 8.86011H16.0344C15.8752 8.0123 15.5418 7.22594 15.0727 6.53965L16.3852 5.22718C16.6781 4.93429 16.6781 4.45941 16.3852 4.16652L15.8337 3.61498C15.5408 3.32208 15.0659 3.32208 14.773 3.61498L13.4606 4.92741C12.7742 4.45828 11.9878 4.12482 11.14 3.96563V2.11011C11.14 1.69589 10.8042 1.36011 10.39 1.36011H9.60999C9.19577 1.36011 8.85999 1.69589 8.85999 2.11011V3.96563C8.01218 4.12481 7.22582 4.45824 6.53953 4.92732L5.22712 3.61491C4.93423 3.32202 4.45935 3.32202 4.16646 3.61491L3.61492 4.16646C3.32202 4.45935 3.32202 4.93422 3.61492 5.22712L4.92732 6.53952C4.45821 7.22586 4.12476 8.01227 3.96559 8.86014H2.11011C1.69589 8.86014 1.36011 9.19592 1.36011 9.61014V10.3901C1.36011 10.8043 1.69589 11.1401 2.11011 11.1401H3.96564C4.12484 11.988 4.4583 12.7743 4.92741 13.4606L3.61502 14.773C3.32213 15.0659 3.32213 15.5408 3.61502 15.8337L4.16657 16.3852C4.45946 16.6781 4.93433 16.6781 5.22723 16.3852L6.53966 15.0728C7.22593 15.5418 8.01225 15.8752 8.86001 16.0344V17.8899C8.86001 18.3041 9.1958 18.6399 9.61001 18.6399H10.39C10.8042 18.6399 11.14 18.3041 11.14 17.8899V16.0344C11.9878 15.8752 12.7742 15.5417 13.4605 15.0726L14.7729 16.3851C15.0658 16.678 15.5407 16.678 15.8336 16.3851L16.3851 15.8335C16.678 15.5407 16.678 15.0658 16.3851 14.7729L15.0727 13.4604Z" fill="#121A23"/>
</svg>
