<svg width="20" height="20" viewBox="0 0 20 20" fill="none" xmlns="http://www.w3.org/2000/svg">
<path d="M10.75 10.5C10.75 10.9142 10.4142 11.25 10 11.25C9.58579 11.25 9.25 10.9142 9.25 10.5C9.25 10.0858 9.58579 9.75 10 9.75C10.4142 9.75 10.75 10.0858 10.75 10.5Z" fill="#121A23"/>
<path d="M12.75 10.5C12.75 10.9142 12.4142 11.25 12 11.25C11.5858 11.25 11.25 10.9142 11.25 10.5C11.25 10.0858 11.5858 9.75 12 9.75C12.4142 9.75 12.75 10.0858 12.75 10.5Z" fill="#121A23"/>
<path d="M14.75 10.5C14.75 10.9142 14.4142 11.25 14 11.25C13.5858 11.25 13.25 10.9142 13.25 10.5C13.25 10.0858 13.5858 9.75 14 9.75C14.4142 9.75 14.75 10.0858 14.75 10.5Z" fill="#121A23"/>
<path fill-rule="evenodd" clip-rule="evenodd" d="M5.12988 14.5398C5.27805 14.5897 5.42835 14.6358 5.58063 14.678C7.03896 16.3907 9.37143 17.5 12 17.5C12.849 17.5 13.667 17.3843 14.4348 17.1699C14.7135 17.0921 15.0135 17.1201 15.2631 17.2665L17.8877 18.8057C18.6259 19.2386 19.5315 18.6045 19.3772 17.7627L18.8155 14.6996C18.7659 14.4289 18.8332 14.1518 18.9818 13.9201C19.6302 12.9088 20 11.7422 20 10.5C20 7.37298 17.6567 4.72486 14.4228 3.82675C12.9647 2.11129 10.6306 1 8 1C3.58172 1 0 4.13489 0 8.00196C0 9.24454 0.369804 10.4115 1.01834 11.4232C1.16682 11.6548 1.23412 11.9319 1.18451 12.2025L0.622837 15.2667C0.468493 16.1088 1.37409 16.743 2.11232 16.31L5.12988 14.5398ZM12.04 16.1401C10.5301 16.1401 9.1372 15.7171 8.01845 15.0039C7.36473 14.5871 6.80461 14.0713 6.36945 13.4827C5.72968 12.6175 5.35999 11.5953 5.35999 10.5001C5.35999 7.38522 8.35072 4.86011 12.04 4.86011C12.5888 4.86011 13.1222 4.916 13.6326 5.0214C14.3234 5.16406 14.9721 5.39744 15.5599 5.70572C17.4569 6.70066 18.72 8.47585 18.72 10.5001C18.72 11.6394 18.3199 12.6997 17.6319 13.5865C17.4157 13.8652 17.3206 14.226 17.4169 14.5653L18.1176 17.0339C18.1953 17.3076 17.8839 17.5256 17.6533 17.359L15.5628 15.8487C15.2762 15.6417 14.9033 15.6063 14.5691 15.7218C13.789 15.9915 12.9351 16.1401 12.04 16.1401ZM4 10.5C4 6.63801 7.5743 3.5065 11.9863 3.50001C10.8667 2.78475 9.47203 2.36049 7.96001 2.36049C4.27075 2.36049 1.28001 4.88631 1.28001 8.00207C1.28001 9.14173 1.68014 10.2025 2.36823 11.0895C2.58436 11.3682 2.67946 11.7289 2.5832 12.0681L1.8824 14.5377C1.80471 14.8115 2.11607 15.0296 2.34669 14.8629L4.62477 13.2166C4.22242 12.3813 4 11.4634 4 10.5Z" fill="#121A23"/>
</svg>
