<svg width="20" height="20" viewBox="0 0 20 20" fill="none" xmlns="http://www.w3.org/2000/svg">
<path fill-rule="evenodd" clip-rule="evenodd" d="M7.75 2.75C7.75 2.61193 7.86193 2.5 8 2.5H12C12.1381 2.5 12.25 2.61193 12.25 2.75V4H7.75V2.75ZM6.25 4V2.75C6.25 1.7835 7.0335 1 8 1H12C12.9665 1 13.75 1.7835 13.75 2.75V4H16.5H18.25C18.6642 4 19 4.33579 19 4.75C19 5.16421 18.6642 5.5 18.25 5.5H17.25V16.25C17.25 17.7688 16.0188 19 14.5 19H5.5C3.98122 19 2.75 17.7688 2.75 16.25V5.5H1.75C1.33579 5.5 1 5.16421 1 4.75C1 4.33579 1.33579 4 1.75 4H3.5H6.25ZM13 5.5H7H4.25V16.25C4.25 16.9404 4.80964 17.5 5.5 17.5H14.5C15.1904 17.5 15.75 16.9404 15.75 16.25V5.5H13ZM8 8C8.41421 8 8.75 8.33579 8.75 8.75V13.75C8.75 14.1642 8.41421 14.5 8 14.5C7.58579 14.5 7.25 14.1642 7.25 13.75V8.75C7.25 8.33579 7.58579 8 8 8ZM12.75 8.75C12.75 8.33579 12.4142 8 12 8C11.5858 8 11.25 8.33579 11.25 8.75V13.75C11.25 14.1642 11.5858 14.5 12 14.5C12.4142 14.5 12.75 14.1642 12.75 13.75V8.75Z" fill="black"/>
</svg>
