<svg width="20" height="20" viewBox="0 0 20 20" fill="none" xmlns="http://www.w3.org/2000/svg">
<path d="M11.5 1.75H3.75C2.64543 1.75 1.75 2.64543 1.75 3.75V16.25C1.75 17.3546 2.64543 18.25 3.75 18.25H16.25C17.3546 18.25 18.25 17.3546 18.25 16.25V8.5M9 11L9.38124 9.09379C9.45868 8.70661 9.64899 8.35101 9.92819 8.07181L15.382 2.61803C15.7607 2.23926 16.321 2.107 16.8292 2.27639V2.27639C17.2515 2.41716 17.5828 2.74853 17.7236 3.17082V3.17082C17.893 3.679 17.7607 4.23926 17.382 4.61803L11.9282 10.0718C11.649 10.351 11.2934 10.5413 10.9062 10.6188L9 11Z" stroke="black" stroke-width="1.5" stroke-linecap="round"/>
</svg>
