<svg width="20" height="20" viewBox="0 0 20 20" fill="none" xmlns="http://www.w3.org/2000/svg">
<path fill-rule="evenodd" clip-rule="evenodd" d="M2.22209 8.1539L9.35232 1.59082L10.2396 2.40756L3.10941 8.97064L2.22209 8.1539Z" fill="black"/>
<path fill-rule="evenodd" clip-rule="evenodd" d="M4.58818 10.3318L11.7184 3.76871L12.6057 4.58544L5.4755 11.1485L4.58818 10.3318Z" fill="black"/>
<path fill-rule="evenodd" clip-rule="evenodd" d="M9.61636 14.96L16.7466 8.39693L17.6339 9.21367L10.5037 15.7768L9.61636 14.96Z" fill="black"/>
<path fill-rule="evenodd" clip-rule="evenodd" d="M11.9824 17.1379L19.1127 10.5748L20 11.3916L12.8698 17.9546L11.9824 17.1379Z" fill="black"/>
<path fill-rule="evenodd" clip-rule="evenodd" d="M11.9824 17.1379C9.52125 19.4033 5.5398 19.4116 3.08954 17.1562C0.639278 14.9009 0.648211 11.2361 3.10941 8.97064L2.22209 8.1539C-0.731347 10.8724 -0.742053 15.2702 2.19826 17.9766C5.13857 20.683 9.91633 20.6732 12.8698 17.9546L11.9824 17.1379Z" fill="black"/>
<path fill-rule="evenodd" clip-rule="evenodd" d="M16.7466 8.39693L17.6339 9.21367C19.931 7.09927 19.9393 3.67877 17.6524 1.57376C15.3655 -0.531243 11.6494 -0.523582 9.35232 1.59082L10.2396 2.40756C12.0445 0.746243 14.9643 0.740215 16.7611 2.39415C18.558 4.04808 18.5515 6.73562 16.7466 8.39693Z" fill="black"/>
<path fill-rule="evenodd" clip-rule="evenodd" d="M4.58818 10.3318C2.94738 11.8421 2.9417 14.2856 4.57521 15.7892C6.20871 17.2927 8.86288 17.287 10.5037 15.7768L9.61636 14.96C8.4678 16.0172 6.60994 16.0213 5.46649 14.9688C4.32303 13.9163 4.32694 12.2057 5.4755 11.1485L4.58818 10.3318Z" fill="black"/>
</svg>
