<svg width="20" height="20" viewBox="0 0 20 20" fill="none" xmlns="http://www.w3.org/2000/svg">
<path d="M5.45453 7.27284C6.45869 7.27284 7.27272 6.45881 7.27272 5.45466C7.27272 4.4505 6.45869 3.63647 5.45453 3.63647C4.45038 3.63647 3.63635 4.4505 3.63635 5.45466C3.63635 6.45881 4.45038 7.27284 5.45453 7.27284Z" fill="black"/>
<path fill-rule="evenodd" clip-rule="evenodd" d="M4 0C1.79086 0 0 1.79086 0 4V16C0 18.2091 1.79086 20 4 20H16C18.2091 20 20 18.2091 20 16V4C20 1.79086 18.2091 0 16 0H4ZM16 1.5H4C2.61929 1.5 1.5 2.61929 1.5 4V12.6269L6.69149 11.3482C7.63056 11.1169 8.59415 11 9.56128 11H10.4387C11.4058 11 12.3694 11.1169 13.3085 11.3482L18.5 12.6269V4C18.5 2.61929 17.3807 1.5 16 1.5Z" fill="black"/>
</svg>
