<svg width="24" height="24" viewBox="0 0 24 24" fill="none" xmlns="http://www.w3.org/2000/svg">
<path d="M17.6091 7.40156C17.8594 7.65876 18 8.00754 18 8.37122C18 8.7349 17.8594 9.08368 17.6091 9.34088L10.9331 16.1984C10.6828 16.4556 10.3432 16.6 9.98916 16.6C9.63511 16.6 9.29556 16.4556 9.04518 16.1984L6.3748 13.4554C6.13159 13.1967 5.99701 12.8503 6.00005 12.4907C6.00309 12.1311 6.14351 11.7871 6.39107 11.5328C6.63862 11.2785 6.9735 11.1343 7.32359 11.1311C7.67367 11.128 8.01094 11.2663 8.26276 11.5161L9.98916 13.2895L15.7211 7.40156C15.9715 7.14444 16.3111 7 16.6651 7C17.0191 7 17.3587 7.14444 17.6091 7.40156Z" fill="black"/>
</svg>
