<svg width="100" height="100" viewBox="0 0 100 100" fill="none" xmlns="http://www.w3.org/2000/svg">
<g clip-path="url(#clip0_1265_929)">
<path fill-rule="evenodd" clip-rule="evenodd" d="M77.8232 8.45643C69.6056 2.95281 59.9404 0.00992809 50.0501 2.51e-05C36.7944 -0.0132475 24.076 5.23776 14.6907 14.5987C5.30533 23.9597 0.0212664 36.6644 6.39891e-05 49.92C-0.0157556 59.8104 2.90198 69.4832 8.38421 77.7151C13.8664 85.947 21.6669 92.3681 30.7989 96.1662C39.9309 99.9643 49.9841 100.969 59.6871 99.0526C69.39 97.1365 78.3067 92.3857 85.3093 85.4013C92.312 78.4169 97.0859 69.5125 99.0273 59.8146C100.969 50.1167 99.9903 40.0608 96.216 30.919C92.4416 21.7772 86.0408 13.9601 77.8232 8.45643ZM31.0007 70.0892C31.6733 70.5479 32.466 70.7985 33.2801 70.81C33.895 70.8119 34.5033 70.6836 35.0652 70.4337C35.627 70.1838 36.1297 69.8179 36.5401 69.36C37.9199 67.9735 39.3052 66.5915 40.6909 65.2091C43.463 62.4437 46.2365 59.6769 48.9701 56.87C49.8101 55.97 50.2201 56.1 50.9701 56.87C55.1201 61.09 59.3101 65.26 63.5101 69.43C63.8911 69.8465 64.353 70.181 64.8675 70.4133C65.382 70.6456 65.9384 70.7707 66.5028 70.7811C67.0673 70.7914 67.6279 70.6868 68.1506 70.4735C68.6732 70.2603 69.1471 69.9429 69.5432 69.5407C69.9393 69.1385 70.2494 68.6599 70.4546 68.134C70.6598 67.6081 70.7558 67.0459 70.7368 66.4817C70.7178 65.9175 70.5842 65.3631 70.344 64.8522C70.1039 64.3413 69.7623 63.8847 69.3401 63.51C65.1701 59.31 61.0001 55.12 56.7801 50.97C56.0901 50.24 55.9501 49.87 56.7801 49.06C59.349 46.5885 61.8772 44.0539 64.4007 41.524C66.0226 39.8981 67.6425 38.2741 69.2701 36.67C70.0616 35.9785 70.5912 35.0358 70.7701 34C70.9108 33.128 70.7689 32.2338 70.3652 31.4482C69.9614 30.6625 69.317 30.0266 68.526 29.6334C67.7351 29.2401 66.8391 29.1102 65.969 29.2625C65.0989 29.4148 64.3004 29.8414 63.6901 30.48C63.3872 30.7808 63.0843 31.0815 62.7814 31.3821C58.8546 35.2804 54.9315 39.1751 51.0601 43.13C50.2501 43.92 49.8401 44.02 48.9701 43.13C45.099 39.1558 41.1664 35.2519 37.23 31.3442C36.9667 31.0828 36.7034 30.8214 36.4401 30.56C36.0623 30.1274 35.5993 29.7775 35.08 29.5322C34.5606 29.287 33.9963 29.1516 33.4222 29.1346C32.8481 29.1177 32.2768 29.2195 31.7439 29.4337C31.211 29.6479 30.7281 29.9698 30.3255 30.3794C29.9228 30.7889 29.6091 31.2772 29.404 31.8136C29.1989 32.3501 29.1069 32.9231 29.1336 33.4968C29.1603 34.0705 29.3052 34.6325 29.5593 35.1476C29.8134 35.6626 30.1711 36.1197 30.6101 36.49C34.7801 40.68 39.0001 44.88 43.2201 49.03C43.9101 49.75 44.1201 50.16 43.2201 50.94C42.3213 51.7162 41.4921 52.5712 40.663 53.4261C40.2744 53.8268 39.8858 54.2275 39.4901 54.62C38.6213 55.4887 37.751 56.3558 36.8808 57.2227C34.7061 59.3893 32.5328 61.5545 30.3901 63.74C29.8172 64.3184 29.427 65.0526 29.2683 65.8511C29.1095 66.6495 29.1891 67.4771 29.4971 68.2307C29.8052 68.9843 30.3281 69.6306 31.0007 70.0892Z" fill="#ED0029"/>
</g>
<defs>
<clipPath id="clip0_1265_929">
<rect width="100" height="100" fill="white"/>
</clipPath>
</defs>
</svg>
